HIERARCHY
ROOT Pelvis
{
	OFFSET 0.000000 0.941512 0.000000
	CHANNELS 6 Xposition Yposition Zposition Zrotation Yrotation Xrotation 
	JOINT Pelvis_L_Hip
	{
		OFFSET 0.000000 0.000000 0.000000
		CHANNELS 3 Zrotation Yrotation Xrotation
		JOINT L_Hip
		{
			OFFSET 0.062321 -0.080322 -0.016990
			CHANNELS 3 Zrotation Yrotation Xrotation
			JOINT L_Knee
			{
				OFFSET 0.093051 -0.381305 -0.029784
				CHANNELS 3 Zrotation Yrotation Xrotation
				JOINT L_Ankle
				{
					OFFSET -0.010371 -0.431000 -0.033614
					CHANNELS 3 Zrotation Yrotation Xrotation
					End Site #name: L_Foot
					{
						OFFSET 0.069299 -0.038670 0.119418
					}
				}
			}
		}
	}
	JOINT Pelvis_R_Hip
	{
		OFFSET 0.000000 0.000000 0.000000
		CHANNELS 3 Zrotation Yrotation Xrotation
		JOINT R_Hip
		{
			OFFSET -0.055334 -0.094904 -0.002373
			CHANNELS 3 Zrotation Yrotation Xrotation
			JOINT R_Knee
			{
				OFFSET -0.064207 -0.384370 -0.019592
				CHANNELS 3 Zrotation Yrotation Xrotation
				JOINT R_Ankle
				{
					OFFSET 0.025418 -0.419734 -0.065953
					CHANNELS 3 Zrotation Yrotation Xrotation
					End Site #name: R_Foot
					{
						OFFSET -0.057233 -0.039888 0.132134
					}
				}
			}
		}
	}
	JOINT Pelvis_Spine1
	{
		OFFSET 0.000000 0.000000 0.000000
		CHANNELS 3 Zrotation Yrotation Xrotation
		JOINT Spine1
		{
			OFFSET -0.005562 0.124093 -0.043360
			CHANNELS 3 Zrotation Yrotation Xrotation
			JOINT Spine2
			{
				OFFSET 0.012244 0.139499 0.029894
				CHANNELS 3 Zrotation Yrotation Xrotation
				JOINT Spine3
				{
					OFFSET -0.002556 0.056561 0.009225
					CHANNELS 3 Zrotation Yrotation Xrotation
					JOINT Spine3_Neck
					{
						OFFSET 0.000000 0.000000 0.000000
						CHANNELS 3 Zrotation Yrotation Xrotation
						JOINT Neck
						{
							OFFSET -0.005205 0.217920 -0.024551
							CHANNELS 3 Zrotation Yrotation Xrotation
							End Site #name: Head
							{
								OFFSET 0.002365 0.091850 0.046637
							}
						}
					}
					JOINT Spine3_L_Collar
					{
						OFFSET 0.000000 0.000000 0.000000
						CHANNELS 3 Zrotation Yrotation Xrotation
						JOINT L_Collar
						{
							OFFSET 0.072225 0.116603 -0.009480
							CHANNELS 3 Zrotation Yrotation Xrotation
							JOINT L_Shoulder
							{
								OFFSET 0.115937 -0.058643 -0.021018
								CHANNELS 3 Zrotation Yrotation Xrotation
								JOINT L_Elbow
								{
									OFFSET 0.021994 -0.254722 -0.024492
									CHANNELS 3 Zrotation Yrotation Xrotation
									End Site #name: L_Wrist
									{
										OFFSET 0.048810 -0.240214 0.103329
									}
								}
							}
						}
					}
					JOINT Spine3_R_Collar
					{
						OFFSET 0.000000 0.000000 0.000000
						CHANNELS 3 Zrotation Yrotation Xrotation
						JOINT R_Collar
						{
							OFFSET -0.073372 0.120704 -0.024611
							CHANNELS 3 Zrotation Yrotation Xrotation
							JOINT R_Shoulder
							{
								OFFSET -0.108089 -0.054969 -0.020504
								CHANNELS 3 Zrotation Yrotation Xrotation
								JOINT R_Elbow
								{
									OFFSET -0.033684 -0.260739 0.009889
									CHANNELS 3 Zrotation Yrotation Xrotation
									End Site #name: R_Wrist
									{
										OFFSET -0.067980 -0.232763 0.118463
									}
								}
							}
						}
					}
				}
			}
		}
	}
}
MOTION
Frames: 10
Frame Time: 0.041667
-0.002286 0.946479 0.000688 -4.419279 -3.785041 6.791224 0.000000 0.000000 0.000000 1.301299 -2.882626 -12.259647 -2.010004 0.147049 5.053099 -1.337688 -6.511317 -1.162583 0.000000 0.000000 0.000000 2.953932 2.438914 -13.338209 4.600144 -0.510652 7.862978 3.835758 4.848612 4.823190 0.000000 0.000000 0.000000 5.691890 -0.510204 -5.742625 -0.586360 -0.039538 -2.771562 -0.119465 3.236969 -1.244807 0.000000 0.000000 0.000000 2.398423 -1.287127 1.400653 0.000000 0.000000 0.000000 17.903795 -4.577745 0.256174 -26.520918 3.387608 2.374642 2.716137 0.338902 -4.643782 0.000000 0.000000 0.000000 -30.766765 13.971810 -6.000540 -12.440848 0.092039 -27.167111 -46.641807 -37.041088 -54.285973 
-0.002127 0.946635 0.000927 -4.365907 -3.830655 6.674018 0.000000 0.000000 0.000000 1.223661 -2.874992 -12.213340 -2.007292 0.146241 5.240968 -1.315731 -6.548758 -1.218513 0.000000 0.000000 0.000000 2.978008 2.414322 -13.207965 4.431400 -0.472115 7.879224 3.883239 4.923231 4.866072 0.000000 0.000000 0.000000 5.602993 -0.539355 -5.413029 -0.700239 -0.036748 -3.037269 0.023815 3.307746 -1.145348 0.000000 0.000000 0.000000 2.511340 -1.371318 1.853007 0.000000 0.000000 0.000000 17.896274 -4.492312 0.320978 -26.037778 3.300820 2.287082 2.021703 -0.075727 -5.085799 0.000000 0.000000 0.000000 -31.457610 13.238235 -5.259279 -8.677031 1.102675 -26.243583 -46.270111 -36.563753 -54.136143 
-0.001717 0.946813 0.001764 -4.418874 -3.986040 6.530379 0.000000 0.000000 0.000000 1.143721 -2.848894 -12.089069 -1.823085 0.122665 5.259892 -1.374300 -6.497352 -1.094742 0.000000 0.000000 0.000000 3.149051 2.424257 -13.204248 4.310484 -0.439033 8.012470 3.714514 4.916365 4.526099 0.000000 0.000000 0.000000 5.804725 -0.673122 -4.707813 -0.945901 -0.049695 -3.965583 0.196811 3.272721 -1.070071 0.000000 0.000000 0.000000 2.420807 -1.371270 2.764461 0.000000 0.000000 0.000000 17.518663 -4.192828 0.458238 -25.200646 3.514882 3.262241 0.840293 -0.949975 -6.576013 0.000000 0.000000 0.000000 -31.318121 12.427085 -4.452832 -3.851524 2.310765 -25.079458 -42.618627 -33.164096 -56.385034 
-0.001427 0.946539 0.002739 -4.421240 -4.136247 6.543183 0.000000 0.000000 0.000000 1.110987 -2.816365 -11.942046 -1.811876 0.122871 5.042855 -1.350447 -6.411355 -1.092910 0.000000 0.000000 0.000000 3.107001 2.420463 -13.194780 4.404207 -0.457595 8.009097 3.621162 4.943703 4.315115 0.000000 0.000000 0.000000 5.876302 -0.686195 -4.714595 -0.767093 -0.072235 -3.972798 0.185487 3.071279 -1.213286 0.000000 0.000000 0.000000 1.780578 -1.039765 3.120608 0.000000 0.000000 0.000000 17.443840 -4.134993 0.453490 -25.671930 3.687839 3.599440 1.269032 -0.763689 -6.716614 0.000000 0.000000 0.000000 -29.981624 11.898613 -4.001042 0.338709 2.957696 -21.739017 -38.675826 -29.550643 -60.520060 
-0.001750 0.946008 0.002868 -4.347189 -4.220858 6.798549 0.000000 0.000000 0.000000 1.164756 -2.833295 -12.026044 -2.032679 0.152614 4.874396 -1.123300 -6.192457 -1.369517 0.000000 0.000000 0.000000 2.902245 2.432938 -13.317160 4.597774 -0.498644 8.029706 3.607663 4.976500 4.263317 0.000000 0.000000 0.000000 5.478187 -0.557736 -5.142484 -0.158489 -0.136553 -3.695179 0.298234 2.972968 -1.169715 0.000000 0.000000 0.000000 0.755578 -0.487310 3.228650 0.000000 0.000000 0.000000 17.394573 -4.343630 0.275155 -26.536243 3.728310 3.339361 1.828744 -0.335234 -5.952297 0.000000 0.000000 0.000000 -27.624060 11.219616 -3.569454 3.543350 2.597974 -15.075349 -33.005280 -23.138128 -67.466747 
-0.002578 0.945537 0.003173 -4.265966 -4.269286 6.871277 0.000000 0.000000 0.000000 1.176326 -2.828377 -12.005668 -2.160833 0.169534 4.853018 -0.970174 -6.058592 -1.563934 0.000000 0.000000 0.000000 2.740248 2.417905 -13.289102 4.785394 -0.538539 8.067662 3.574480 5.011553 4.172965 0.000000 0.000000 0.000000 5.299245 -0.517806 -5.207011 -0.059461 -0.142803 -3.544151 0.528168 3.040785 -1.255453 0.000000 0.000000 0.000000 -0.205840 0.031576 3.310926 0.000000 0.000000 0.000000 17.211377 -4.463605 0.159981 -26.536678 3.577988 2.902040 1.848259 -0.175743 -5.171568 0.000000 0.000000 0.000000 -26.378282 10.494263 -3.053337 8.134361 1.639287 -6.458706 -25.643504 -11.143106 -73.564200 
-0.004126 0.945505 0.004147 -4.296418 -4.228271 6.615528 0.000000 0.000000 0.000000 1.290615 -2.759305 -11.703538 -2.186057 0.172294 4.893588 -0.980696 -6.137682 -1.584810 0.000000 0.000000 0.000000 2.867634 2.358408 -12.954637 4.862639 -0.556009 8.077834 3.479921 5.024343 3.978804 0.000000 0.000000 0.000000 5.600999 -0.666649 -4.498831 -0.655210 -0.086449 -3.980055 0.783721 3.213287 -1.473716 0.000000 0.000000 0.000000 -0.990878 0.448614 3.750514 0.000000 0.000000 0.000000 17.206518 -4.246984 0.330144 -25.756467 3.447861 2.855767 1.122559 -0.563317 -5.351680 0.000000 0.000000 0.000000 -26.637488 10.128055 -2.735783 16.210250 0.089526 2.078813 -17.940579 2.431522 -70.207848 
-0.005314 0.945947 0.005759 -4.224858 -4.044333 6.396125 0.000000 0.000000 0.000000 1.208604 -2.705902 -11.449488 -2.139734 0.165214 4.888618 -0.999181 -6.359120 -1.661592 0.000000 0.000000 0.000000 2.910571 2.312839 -12.717152 4.905650 -0.566954 8.146825 3.291315 4.898891 3.691485 0.000000 0.000000 0.000000 5.709568 -0.730778 -4.158634 -1.024835 -0.043547 -4.042458 0.931624 3.273072 -1.699268 0.000000 0.000000 0.000000 -1.893364 0.936248 4.195619 0.000000 0.000000 0.000000 17.215635 -4.073235 0.475527 -25.515423 3.314643 2.586297 1.367704 -0.413038 -5.193988 0.000000 0.000000 0.000000 -26.480791 9.956625 -2.635917 25.107772 -1.837247 7.999109 -11.647955 7.784498 -56.920370 
-0.006926 0.946293 0.007602 -4.149578 -3.874461 6.405884 0.000000 0.000000 0.000000 1.185266 -2.694131 -11.390488 -2.155764 0.166504 4.828131 -0.962994 -6.557682 -1.819232 0.000000 0.000000 0.000000 2.982857 2.323513 -12.755734 4.897495 -0.563450 8.332021 3.244113 4.871940 3.621598 0.000000 0.000000 0.000000 5.210650 -0.581330 -4.564955 -0.711241 -0.050295 -3.350784 1.303456 3.229291 -1.710402 0.000000 0.000000 0.000000 -2.936851 1.507022 3.723489 0.000000 0.000000 0.000000 17.457137 -4.110473 0.493151 -26.405491 3.210882 1.934783 2.273736 0.111419 -4.727537 0.000000 0.000000 0.000000 -24.672068 9.733288 -2.657930 31.697657 -3.254769 10.774351 -9.876666 4.272887 -40.201771 
-0.007955 0.946276 0.007872 -4.171948 -3.915082 6.378363 0.000000 0.000000 0.000000 1.180838 -2.662427 -11.248761 -2.130865 0.163688 4.741813 -0.880143 -6.513327 -1.938241 0.000000 0.000000 0.000000 3.034738 2.368615 -12.963840 4.912489 -0.554751 8.806528 3.242234 5.045409 3.505924 0.000000 0.000000 0.000000 4.586481 -0.476199 -4.483155 -0.179633 -0.077635 -2.378376 2.379774 3.342412 -1.775135 0.000000 0.000000 0.000000 -4.051989 2.089525 2.392566 0.000000 0.000000 0.000000 17.458390 -4.148886 0.459726 -27.707100 3.118140 1.204947 2.595842 0.353033 -4.248902 0.000000 0.000000 0.000000 -22.881777 9.565134 -2.714139 33.334876 -4.810434 14.028411 -9.420306 2.069674 -30.866924 
